<mxfile host="app.diagrams.net" modified="2024-03-04T19:08:28.147Z" agent="Mozilla/5.0 (Windows NT 10.0; Win64; x64) AppleWebKit/537.36 (KHTML, like Gecko) Chrome/122.0.0.0 Safari/537.36" etag="HqhB18uwKMV6Pz7HpA0T" version="24.0.1" type="github">
  <diagram name="Страница — 1" id="EISbMjJNOuyy9u4AKIzm">
    <mxGraphModel dx="2736" dy="1029" grid="1" gridSize="10" guides="1" tooltips="1" connect="1" arrows="1" fold="1" page="1" pageScale="1" pageWidth="827" pageHeight="1169" math="0" shadow="0">
      <root>
        <mxCell id="0" />
        <mxCell id="1" parent="0" />
        <mxCell id="WkRKGf30HELfejT5JC6U-2" value="&lt;p style=&quot;margin:0px;margin-top:4px;text-align:center;&quot;&gt;&lt;i&gt;&amp;lt;&amp;lt;Interface&amp;gt;&amp;gt;&lt;/i&gt;&lt;br&gt;&lt;b&gt;IGameEntity&lt;/b&gt;&lt;/p&gt;&lt;hr size=&quot;1&quot;&gt;&lt;p style=&quot;margin:0px;margin-left:4px;&quot;&gt;+ DrawOrder { get; } : int&lt;/p&gt;&lt;p style=&quot;margin:0px;margin-left:4px;&quot;&gt;+ Update(gameTime : GameTime, screen : Screen) : void&lt;/p&gt;&lt;p style=&quot;margin:0px;margin-left:4px;&quot;&gt;+ Draw(gameTime : GameTime, spriteBatch : SpriteBatch, screen : Screen) : void&lt;/p&gt;" style="verticalAlign=top;align=left;overflow=fill;fontSize=12;fontFamily=Helvetica;html=1;whiteSpace=wrap;" parent="1" vertex="1">
          <mxGeometry x="260" y="680" width="470" height="200" as="geometry" />
        </mxCell>
        <mxCell id="WkRKGf30HELfejT5JC6U-4" style="edgeStyle=orthogonalEdgeStyle;rounded=0;orthogonalLoop=1;jettySize=auto;html=1;endArrow=block;endFill=0;entryX=1;entryY=0.5;entryDx=0;entryDy=0;" parent="1" source="WkRKGf30HELfejT5JC6U-5" edge="1">
          <mxGeometry relative="1" as="geometry">
            <mxPoint x="20" y="450" as="targetPoint" />
            <Array as="points" />
          </mxGeometry>
        </mxCell>
        <mxCell id="WkRKGf30HELfejT5JC6U-5" value="&lt;p style=&quot;margin:0px;margin-top:4px;text-align:center;&quot;&gt;Main&lt;br&gt;&lt;/p&gt;&lt;hr size=&quot;1&quot;&gt;&lt;p style=&quot;margin:0px;margin-left:4px;&quot;&gt;- _entityManager : EntityManager&lt;/p&gt;&lt;hr size=&quot;1&quot;&gt;&lt;p style=&quot;margin:0px;margin-left:4px;&quot;&gt;&amp;nbsp;&lt;/p&gt;" style="verticalAlign=top;align=left;overflow=fill;fontSize=12;fontFamily=Helvetica;html=1;whiteSpace=wrap;" parent="1" vertex="1">
          <mxGeometry x="230" y="350" width="200" height="200" as="geometry" />
        </mxCell>
        <mxCell id="WkRKGf30HELfejT5JC6U-6" value="&lt;p style=&quot;margin:0px;margin-top:4px;text-align:center;&quot;&gt;&lt;b&gt;Game&lt;/b&gt;&lt;/p&gt;&lt;hr size=&quot;1&quot;&gt;&lt;p style=&quot;margin:0px;margin-left:4px;&quot;&gt;&amp;nbsp;&lt;/p&gt;&lt;hr size=&quot;1&quot;&gt;&lt;p style=&quot;margin:0px;margin-left:4px;&quot;&gt;&amp;nbsp;&lt;/p&gt;" style="verticalAlign=top;align=left;overflow=fill;fontSize=12;fontFamily=Helvetica;html=1;whiteSpace=wrap;" parent="1" vertex="1">
          <mxGeometry x="-140" y="360" width="160" height="200" as="geometry" />
        </mxCell>
        <mxCell id="WkRKGf30HELfejT5JC6U-7" value="&lt;p style=&quot;margin:0px;margin-top:4px;text-align:center;&quot;&gt;&lt;b&gt;EntityManager&lt;/b&gt;&lt;/p&gt;&lt;hr size=&quot;1&quot;&gt;&lt;p style=&quot;margin:0px;margin-left:4px;&quot;&gt;&lt;/p&gt;&lt;b style=&quot;border-color: var(--border-color); text-align: center;&quot;&gt;&amp;nbsp;&lt;/b&gt;&lt;span style=&quot;border-color: var(--border-color); text-align: center;&quot;&gt;- &lt;/span&gt;&lt;span style=&quot;border-color: var(--border-color); text-align: center;&quot;&gt;_gameEntities &lt;/span&gt;&lt;b style=&quot;border-color: var(--border-color); text-align: center;&quot;&gt;: &lt;/b&gt;&lt;span style=&quot;border-color: var(--border-color); text-align: center;&quot;&gt;List&amp;lt;IGameEntity&amp;gt;&lt;br&gt;&lt;/span&gt;&lt;hr size=&quot;1&quot;&gt;&lt;p style=&quot;margin:0px;margin-left:4px;&quot;&gt;+ Add(entity : IGameEntity) : void&lt;/p&gt;&lt;p style=&quot;margin:0px;margin-left:4px;&quot;&gt;+ Remove(entity : IGameEntity) : void&lt;/p&gt;&lt;p style=&quot;margin:0px;margin-left:4px;&quot;&gt;+ Clear() : void&lt;/p&gt;&lt;p style=&quot;margin:0px;margin-left:4px;&quot;&gt;+ Manage (gameTime : GameTime, screen : Screen) : void&lt;/p&gt;&lt;p style=&quot;margin:0px;margin-left:4px;&quot;&gt;+ DrawEntities(gameTime : GameTime, spriteBatch : SpriteBatch, screen : Screen) : void&lt;/p&gt;" style="verticalAlign=top;align=left;overflow=fill;fontSize=12;fontFamily=Helvetica;html=1;whiteSpace=wrap;" parent="1" vertex="1">
          <mxGeometry x="530" y="420" width="510" height="200" as="geometry" />
        </mxCell>
        <mxCell id="WkRKGf30HELfejT5JC6U-8" value="" style="endArrow=open;html=1;endSize=12;startArrow=diamondThin;startSize=14;startFill=0;edgeStyle=orthogonalEdgeStyle;align=left;verticalAlign=bottom;rounded=0;exitX=0.5;exitY=1;exitDx=0;exitDy=0;entryX=0.5;entryY=0;entryDx=0;entryDy=0;" parent="1" source="WkRKGf30HELfejT5JC6U-7" target="WkRKGf30HELfejT5JC6U-2" edge="1">
          <mxGeometry x="-0.493" y="20" relative="1" as="geometry">
            <mxPoint x="390" y="640" as="sourcePoint" />
            <mxPoint x="550" y="640" as="targetPoint" />
            <mxPoint as="offset" />
          </mxGeometry>
        </mxCell>
        <mxCell id="WkRKGf30HELfejT5JC6U-9" value="" style="endArrow=open;html=1;endSize=12;startArrow=diamondThin;startSize=14;startFill=1;edgeStyle=orthogonalEdgeStyle;align=left;verticalAlign=bottom;rounded=0;entryX=0;entryY=0.5;entryDx=0;entryDy=0;exitX=1;exitY=0.5;exitDx=0;exitDy=0;" parent="1" source="WkRKGf30HELfejT5JC6U-5" target="WkRKGf30HELfejT5JC6U-7" edge="1">
          <mxGeometry x="-1" y="3" relative="1" as="geometry">
            <mxPoint x="390" y="440" as="sourcePoint" />
            <mxPoint x="550" y="440" as="targetPoint" />
          </mxGeometry>
        </mxCell>
        <mxCell id="alK7boZIeArMXrxe7pY8-1" value="&amp;lt;&amp;lt;enumeration&amp;gt;&amp;gt;&lt;br&gt;&lt;b&gt;GameState&lt;/b&gt;" style="swimlane;fontStyle=0;align=center;verticalAlign=top;childLayout=stackLayout;horizontal=1;startSize=40;horizontalStack=0;resizeParent=1;resizeParentMax=0;resizeLast=0;collapsible=0;marginBottom=0;html=1;whiteSpace=wrap;" vertex="1" parent="1">
          <mxGeometry x="380" y="20" width="140" height="100" as="geometry" />
        </mxCell>
        <mxCell id="alK7boZIeArMXrxe7pY8-2" value="MainMenu&lt;div&gt;LevelsMenu&lt;/div&gt;&lt;div&gt;Playing&lt;/div&gt;" style="text;html=1;align=left;verticalAlign=middle;spacingLeft=4;spacingRight=4;overflow=hidden;rotatable=0;points=[[0,0.5],[1,0.5]];portConstraint=eastwest;whiteSpace=wrap;fillColor=default;" vertex="1" parent="alK7boZIeArMXrxe7pY8-1">
          <mxGeometry y="40" width="140" height="60" as="geometry" />
        </mxCell>
        <mxCell id="alK7boZIeArMXrxe7pY8-8" value="&lt;p style=&quot;margin:0px;margin-top:4px;text-align:center;&quot;&gt;&lt;i&gt;&amp;lt;&amp;lt;utility&amp;gt;&amp;gt;&lt;/i&gt;&lt;br&gt;&lt;b&gt;Info&lt;/b&gt;&lt;/p&gt;&lt;hr size=&quot;1&quot; style=&quot;border-style:solid;&quot;&gt;&lt;p style=&quot;margin:0px;margin-left:4px;&quot;&gt;+ State { get; } : GameState&lt;br&gt;+ Level { get; } : int&lt;/p&gt;&lt;hr size=&quot;1&quot; style=&quot;border-style:solid;&quot;&gt;&lt;p style=&quot;margin:0px;margin-left:4px;&quot;&gt;+ method1(Type): Type&lt;br&gt;+ method2(Type, Type): Type&lt;/p&gt;" style="verticalAlign=top;align=left;overflow=fill;html=1;whiteSpace=wrap;" vertex="1" parent="1">
          <mxGeometry x="-370" y="140" width="190" height="140" as="geometry" />
        </mxCell>
        <mxCell id="alK7boZIeArMXrxe7pY8-9" value="&lt;p style=&quot;margin:0px;margin-top:4px;text-align:center;&quot;&gt;GameManager&lt;/p&gt;&lt;hr size=&quot;1&quot;&gt;&lt;p style=&quot;margin:0px;margin-left:4px;&quot;&gt;- _gameState : GameState&lt;/p&gt;&lt;p style=&quot;margin:0px;margin-left:4px;&quot;&gt;- _currentLevel : int&lt;/p&gt;&lt;hr size=&quot;1&quot;&gt;&lt;p style=&quot;margin:0px;margin-left:4px;&quot;&gt;&amp;nbsp;+ Manage (gameTime : GameTime)&lt;/p&gt;" style="verticalAlign=top;align=left;overflow=fill;fontSize=12;fontFamily=Helvetica;html=1;whiteSpace=wrap;" vertex="1" parent="1">
          <mxGeometry y="140" width="300" height="100" as="geometry" />
        </mxCell>
        <mxCell id="alK7boZIeArMXrxe7pY8-10" value="" style="endArrow=circlePlus;startArrow=none;endFill=0;startFill=0;endSize=8;html=1;labelBackgroundColor=none;rounded=0;exitX=0;exitY=0.5;exitDx=0;exitDy=0;" edge="1" parent="1" source="alK7boZIeArMXrxe7pY8-9" target="alK7boZIeArMXrxe7pY8-8">
          <mxGeometry width="160" relative="1" as="geometry">
            <mxPoint x="-160" y="300" as="sourcePoint" />
            <mxPoint y="300" as="targetPoint" />
          </mxGeometry>
        </mxCell>
        <mxCell id="alK7boZIeArMXrxe7pY8-11" value="1" style="endArrow=open;html=1;endSize=12;startArrow=diamondThin;startSize=14;startFill=1;edgeStyle=orthogonalEdgeStyle;align=left;verticalAlign=bottom;rounded=0;entryX=0.5;entryY=1;entryDx=0;entryDy=0;exitX=0.5;exitY=0;exitDx=0;exitDy=0;" edge="1" parent="1" source="WkRKGf30HELfejT5JC6U-5" target="alK7boZIeArMXrxe7pY8-9">
          <mxGeometry x="-1" y="3" relative="1" as="geometry">
            <mxPoint x="20" y="350" as="sourcePoint" />
            <mxPoint x="180" y="350" as="targetPoint" />
          </mxGeometry>
        </mxCell>
      </root>
    </mxGraphModel>
  </diagram>
</mxfile>
